<?xml version="1.0" encoding="iso-8859-1"?>
<!-- Uploaded to: SVG Repo, www.svgrepo.com, Generator: SVG Repo Mixer Tools -->
<svg version="1.1" id="Layer_1" xmlns="http://www.w3.org/2000/svg" xmlns:xlink="http://www.w3.org/1999/xlink" 
	 viewBox="0 0 512 512" xml:space="preserve">
<g>
	<rect style="fill:#60DC4D;" width="66.783" height="33.391"/>
	<polygon style="fill:#60DC4D;" points="200.348,478.609 200.348,512 256,512 256,478.609 289.391,478.609 289.391,422.957 
		356.174,422.957 356.174,478.609 389.565,478.609 389.565,512 445.217,512 445.217,478.609 478.609,478.609 478.609,422.957 
		445.217,422.957 445.217,389.565 166.957,389.565 166.957,478.609 	"/>
	<polygon style="fill:#60DC4D;" points="100.174,89.043 100.174,33.391 66.783,33.391 66.783,122.435 100.174,122.435 
		100.174,222.609 133.565,222.609 133.565,389.565 166.957,389.565 166.957,356.174 445.217,356.174 445.217,322.783 
		478.609,322.783 478.609,222.609 512,222.609 512,89.043 	"/>
</g>
<g>
	<polygon style="fill:#57565C;" points="289.391,422.957 256,422.957 256,389.565 200.348,389.565 200.348,422.957 166.957,422.957 
		166.957,478.609 200.348,478.609 200.348,512 256,512 256,478.609 289.391,478.609 	"/>
	<polygon style="fill:#57565C;" points="478.609,422.957 445.217,422.957 445.217,389.565 389.565,389.565 389.565,422.957 
		356.174,422.957 356.174,478.609 389.565,478.609 389.565,512 445.217,512 445.217,478.609 478.609,478.609 	"/>
</g>
<rect width="66.783" height="33.391"/>
<polygon points="166.957,222.609 133.565,222.609 133.565,389.565 166.957,389.565 166.957,356.174 445.217,356.174 
	445.217,322.783 166.957,322.783 "/>
<rect x="445.217" y="222.609" width="33.391" height="100.174"/>
<polygon points="100.174,89.043 100.174,33.391 66.783,33.391 66.783,122.435 100.174,122.435 100.174,222.609 133.565,222.609 
	133.565,122.435 478.609,122.435 478.609,222.609 512,222.609 512,89.043 "/>
<rect x="200.348" y="478.609" width="55.652" height="33.391"/>
<rect x="389.565" y="478.609" width="55.652" height="33.391"/>
<rect x="445.217" y="422.957" width="33.391" height="55.652"/>
<polygon points="166.957,478.609 200.348,478.609 200.348,422.957 256,422.957 256,478.609 289.391,478.609 289.391,422.957 
	356.174,422.957 356.174,478.609 389.565,478.609 389.565,422.957 445.217,422.957 445.217,389.565 389.565,389.565 
	389.565,389.565 256,389.565 256,389.565 200.348,389.565 200.348,389.565 166.957,389.565 "/>
<polygon points="322.783,155.826 289.391,155.826 289.391,200.348 244.87,200.348 244.87,233.739 289.391,233.739 289.391,278.261 
	322.783,278.261 322.783,233.739 367.304,233.739 367.304,200.348 322.783,200.348 "/>
</svg>